<mxfile host="app.diagrams.net" modified="2024-04-26T10:59:16.846Z" agent="Mozilla/5.0 (Macintosh; Intel Mac OS X 10_15_7) AppleWebKit/537.36 (KHTML, like Gecko) Chrome/124.0.0.0 Safari/537.36" etag="0Z83tpgjpI1joXfuMeND" version="24.3.0" type="github">
  <diagram id="prtHgNgQTEPvFCAcTncT" name="Page-1">
    <mxGraphModel dx="1194" dy="731" grid="1" gridSize="10" guides="1" tooltips="1" connect="1" arrows="1" fold="1" page="1" pageScale="1" pageWidth="827" pageHeight="1169" math="0" shadow="0">
      <root>
        <mxCell id="0" />
        <mxCell id="1" parent="0" />
        <mxCell id="Pa1Bo0sml9TkQDMnMJX8-5" value="场景A环形队列(存图片指针、回调地址)" style="shape=cylinder3;whiteSpace=wrap;html=1;boundedLbl=1;backgroundOutline=1;size=15;" vertex="1" parent="1">
          <mxGeometry x="160.5" y="320" width="90" height="80" as="geometry" />
        </mxCell>
        <mxCell id="Pa1Bo0sml9TkQDMnMJX8-13" value="拉流线程&lt;br&gt;（只负责1个rtsp）" style="shape=process;whiteSpace=wrap;html=1;backgroundOutline=1;" vertex="1" parent="1">
          <mxGeometry x="280" y="140" width="120" height="60" as="geometry" />
        </mxCell>
        <mxCell id="Pa1Bo0sml9TkQDMnMJX8-19" value="线程3" style="shape=process;whiteSpace=wrap;html=1;backgroundOutline=1;" vertex="1" parent="1">
          <mxGeometry x="190.5" y="510" width="60" height="30" as="geometry" />
        </mxCell>
        <mxCell id="Pa1Bo0sml9TkQDMnMJX8-20" value="线程1" style="shape=process;whiteSpace=wrap;html=1;backgroundOutline=1;" vertex="1" parent="1">
          <mxGeometry x="190.5" y="450" width="60" height="30" as="geometry" />
        </mxCell>
        <mxCell id="Pa1Bo0sml9TkQDMnMJX8-21" value="线程2" style="shape=process;whiteSpace=wrap;html=1;backgroundOutline=1;" vertex="1" parent="1">
          <mxGeometry x="190.5" y="480" width="60" height="30" as="geometry" />
        </mxCell>
        <mxCell id="Pa1Bo0sml9TkQDMnMJX8-31" value="&lt;span style=&quot;background-color: initial;&quot;&gt;场景A&lt;/span&gt;" style="whiteSpace=wrap;html=1;fillColor=none;align=left;" vertex="1" parent="1">
          <mxGeometry x="150.5" y="430" width="110" height="130" as="geometry" />
        </mxCell>
        <mxCell id="Pa1Bo0sml9TkQDMnMJX8-33" value="线程3" style="shape=process;whiteSpace=wrap;html=1;backgroundOutline=1;" vertex="1" parent="1">
          <mxGeometry x="330.5" y="510" width="60" height="30" as="geometry" />
        </mxCell>
        <mxCell id="Pa1Bo0sml9TkQDMnMJX8-34" value="线程1" style="shape=process;whiteSpace=wrap;html=1;backgroundOutline=1;" vertex="1" parent="1">
          <mxGeometry x="330.5" y="450" width="60" height="30" as="geometry" />
        </mxCell>
        <mxCell id="Pa1Bo0sml9TkQDMnMJX8-35" value="线程2" style="shape=process;whiteSpace=wrap;html=1;backgroundOutline=1;" vertex="1" parent="1">
          <mxGeometry x="330.5" y="480" width="60" height="30" as="geometry" />
        </mxCell>
        <mxCell id="Pa1Bo0sml9TkQDMnMJX8-36" value="&lt;span style=&quot;background-color: initial;&quot;&gt;场景B&lt;/span&gt;" style="whiteSpace=wrap;html=1;fillColor=none;align=left;" vertex="1" parent="1">
          <mxGeometry x="290.5" y="430" width="110" height="130" as="geometry" />
        </mxCell>
        <mxCell id="Pa1Bo0sml9TkQDMnMJX8-37" value="线程3" style="shape=process;whiteSpace=wrap;html=1;backgroundOutline=1;" vertex="1" parent="1">
          <mxGeometry x="469.5" y="510" width="60" height="30" as="geometry" />
        </mxCell>
        <mxCell id="Pa1Bo0sml9TkQDMnMJX8-38" value="线程1" style="shape=process;whiteSpace=wrap;html=1;backgroundOutline=1;" vertex="1" parent="1">
          <mxGeometry x="469.5" y="450" width="60" height="30" as="geometry" />
        </mxCell>
        <mxCell id="Pa1Bo0sml9TkQDMnMJX8-39" value="线程2" style="shape=process;whiteSpace=wrap;html=1;backgroundOutline=1;" vertex="1" parent="1">
          <mxGeometry x="469.5" y="480" width="60" height="30" as="geometry" />
        </mxCell>
        <mxCell id="Pa1Bo0sml9TkQDMnMJX8-40" value="&lt;span style=&quot;background-color: initial;&quot;&gt;场景C&lt;/span&gt;" style="whiteSpace=wrap;html=1;fillColor=none;align=left;" vertex="1" parent="1">
          <mxGeometry x="444.5" y="430" width="110" height="130" as="geometry" />
        </mxCell>
        <mxCell id="Pa1Bo0sml9TkQDMnMJX8-41" value="场景C环形队列(存图片指针、回调地址)" style="shape=cylinder3;whiteSpace=wrap;html=1;boundedLbl=1;backgroundOutline=1;size=15;" vertex="1" parent="1">
          <mxGeometry x="300.5" y="320" width="90" height="80" as="geometry" />
        </mxCell>
        <mxCell id="Pa1Bo0sml9TkQDMnMJX8-42" value="场景C环形队列(存图片指针、回调地址)" style="shape=cylinder3;whiteSpace=wrap;html=1;boundedLbl=1;backgroundOutline=1;size=15;" vertex="1" parent="1">
          <mxGeometry x="449.5" y="320" width="90" height="80" as="geometry" />
        </mxCell>
      </root>
    </mxGraphModel>
  </diagram>
</mxfile>
